<svg width="4115" height="408" viewBox="0 0 4115 408" fill="none" xmlns="http://www.w3.org/2000/svg">
<path d="M94.4551 304.587V105.008" stroke="black" stroke-width="9"/>
<path d="M94.4551 105.008C184.217 105.008 184.217 304.587 273.978 304.587" stroke="black" stroke-width="9"/>
<path d="M273.979 304.587V105.008" stroke="black" stroke-width="9" stroke-dasharray="12 7"/>
<path d="M95.0343 318.75C102.39 318.75 108.354 312.12 108.354 303.942C108.354 295.764 102.39 289.135 95.0343 289.135C87.6782 289.135 81.7148 295.764 81.7148 303.942C81.7148 312.12 87.6782 318.75 95.0343 318.75Z" fill="black" stroke="black" stroke-width="6"/>
<path d="M95.0343 120.459C102.39 120.459 108.354 113.829 108.354 105.651C108.354 97.4733 102.39 90.8438 95.0343 90.8438C87.6782 90.8438 81.7148 97.4733 81.7148 105.651C81.7148 113.829 87.6782 120.459 95.0343 120.459Z" fill="black" stroke="black" stroke-width="6"/>
<path d="M273.4 318.75C280.756 318.75 286.719 312.12 286.719 303.942C286.719 295.764 280.756 289.135 273.4 289.135C266.043 289.135 260.08 295.764 260.08 303.942C260.08 312.12 266.043 318.75 273.4 318.75Z" fill="black" stroke="black" stroke-width="6"/>
<path d="M273.4 120.459C280.756 120.459 286.719 113.829 286.719 105.651C286.719 97.4733 280.756 90.8438 273.4 90.8438C266.043 90.8438 260.08 97.4733 260.08 105.651C260.08 113.829 266.043 120.459 273.4 120.459Z" fill="black" stroke="black" stroke-width="6"/>
<path d="M22.9375 51V25.5H45.875" stroke="black" stroke-width="6"/>
<path d="M321.125 25.5H344.062V51" stroke="black" stroke-width="6"/>
<path d="M22.9375 357V382.5H45.875" stroke="black" stroke-width="6"/>
<path d="M344.062 357V382.5H321.125" stroke="black" stroke-width="6"/>
<path d="M468.814 317.5V90.562H490.396L499.552 126.205V317.5H468.814ZM625.774 317.5L486.472 131.437L490.396 90.562L630.025 276.298L625.774 317.5ZM625.774 317.5L616.618 283.819V90.562H647.356V317.5H625.774ZM766.698 320.77C751.438 320.77 737.704 317.173 725.496 309.979C713.288 302.785 703.587 293.084 696.393 280.876C689.199 268.45 685.602 254.607 685.602 239.347C685.602 224.305 689.199 210.789 696.393 198.799C703.587 186.591 713.288 176.89 725.496 169.696C737.704 162.502 751.438 158.905 766.698 158.905C781.74 158.905 795.365 162.502 807.573 169.696C819.999 176.672 829.809 186.264 837.003 198.472C844.197 210.68 847.794 224.305 847.794 239.347C847.794 254.607 844.197 268.45 837.003 280.876C829.809 293.084 819.999 302.785 807.573 309.979C795.365 317.173 781.74 320.77 766.698 320.77ZM766.698 292.321C776.508 292.321 785.228 290.032 792.858 285.454C800.488 280.876 806.483 274.663 810.843 266.815C815.203 258.749 817.383 249.593 817.383 239.347C817.383 229.319 815.094 220.381 810.516 212.533C806.156 204.685 800.161 198.581 792.531 194.221C785.119 189.643 776.508 187.354 766.698 187.354C756.888 187.354 748.168 189.643 740.538 194.221C732.908 198.581 726.913 204.685 722.553 212.533C718.193 220.381 716.013 229.319 716.013 239.347C716.013 249.593 718.193 258.749 722.553 266.815C726.913 274.663 732.908 280.876 740.538 285.454C748.168 290.032 756.888 292.321 766.698 292.321ZM946.681 320.77C932.293 320.77 919.431 317.282 908.095 310.306C896.759 303.112 887.712 293.411 880.954 281.203C874.414 268.995 871.144 255.261 871.144 240.001C871.144 224.741 874.414 211.007 880.954 198.799C887.712 186.591 896.759 176.89 908.095 169.696C919.431 162.502 932.293 158.905 946.681 158.905C958.235 158.905 968.699 161.412 978.073 166.426C987.447 171.222 994.968 177.98 1000.64 186.7C1006.52 195.202 1009.79 205.121 1010.45 216.457V263.218C1009.79 274.336 1006.63 284.255 1000.96 292.975C995.295 301.695 987.774 308.562 978.4 313.576C969.026 318.372 958.453 320.77 946.681 320.77ZM951.586 292.975C961.396 292.975 969.898 290.686 977.092 286.108C984.504 281.53 990.281 275.317 994.423 267.469C998.565 259.403 1000.64 250.247 1000.64 240.001C1000.64 229.319 998.456 220.054 994.096 212.206C989.954 204.358 984.177 198.145 976.765 193.567C969.571 188.989 961.069 186.7 951.259 186.7C941.449 186.7 932.838 188.989 925.426 193.567C918.014 198.145 912.128 204.467 907.768 212.533C903.626 220.381 901.555 229.428 901.555 239.674C901.555 250.138 903.626 259.403 907.768 267.469C912.128 275.317 918.014 281.53 925.426 286.108C933.056 290.686 941.776 292.975 951.586 292.975ZM1028.43 317.5H998.674V275.644L1004.23 237.712L998.674 200.107V84.022H1028.43V317.5ZM1143.22 320.77C1127.74 320.77 1113.79 317.282 1101.36 310.306C1088.94 303.112 1079.13 293.411 1071.93 281.203C1064.74 268.995 1061.14 255.152 1061.14 239.674C1061.14 224.414 1064.63 210.68 1071.61 198.472C1078.8 186.264 1088.39 176.672 1100.38 169.696C1112.59 162.502 1126.21 158.905 1141.26 158.905C1155.64 158.905 1168.29 162.175 1179.19 168.715C1190.31 175.255 1198.92 184.302 1205.02 195.856C1211.34 207.41 1214.5 220.49 1214.5 235.096C1214.5 237.276 1214.4 239.674 1214.18 242.29C1213.96 244.688 1213.52 247.522 1212.87 250.792H1081.74V226.267H1197.17L1186.38 235.75C1186.38 225.286 1184.53 216.457 1180.82 209.263C1177.12 201.851 1171.89 196.183 1165.13 192.259C1158.37 188.117 1150.19 186.046 1140.6 186.046C1130.57 186.046 1121.75 188.226 1114.12 192.586C1106.49 196.946 1100.6 203.05 1096.46 210.898C1092.32 218.746 1090.24 228.011 1090.24 238.693C1090.24 249.593 1092.42 259.185 1096.78 267.469C1101.14 275.535 1107.36 281.857 1115.42 286.435C1123.49 290.795 1132.75 292.975 1143.22 292.975C1151.94 292.975 1159.9 291.449 1167.09 288.397C1174.5 285.345 1180.82 280.767 1186.06 274.663L1205.02 293.956C1197.61 302.676 1188.45 309.325 1177.55 313.903C1166.87 318.481 1155.43 320.77 1143.22 320.77ZM1272.43 229.21V202.396H1334.23C1342.73 202.396 1350.25 200.652 1356.79 197.164C1363.55 193.676 1368.78 188.771 1372.49 182.449C1376.41 176.127 1378.37 168.606 1378.37 159.886C1378.37 151.166 1376.41 143.645 1372.49 137.323C1368.78 131.001 1363.55 126.096 1356.79 122.608C1350.25 119.12 1342.73 117.376 1334.23 117.376H1272.43V90.562H1336.19C1350.14 90.562 1362.57 93.396 1373.47 99.064C1384.59 104.732 1393.31 112.798 1399.63 123.262C1406.17 133.508 1409.44 145.716 1409.44 159.886C1409.44 173.838 1406.17 186.046 1399.63 196.51C1393.31 206.756 1384.59 214.822 1373.47 220.708C1362.57 226.376 1350.14 229.21 1336.19 229.21H1272.43ZM1251.83 317.5V90.562H1282.56V317.5H1251.83ZM1502.01 320.77C1487.84 320.77 1474.98 317.282 1463.43 310.306C1451.87 303.112 1442.72 293.411 1435.96 281.203C1429.42 268.995 1426.15 255.261 1426.15 240.001C1426.15 224.741 1429.42 211.007 1435.96 198.799C1442.72 186.591 1451.76 176.89 1463.1 169.696C1474.65 162.502 1487.63 158.905 1502.01 158.905C1513.79 158.905 1524.25 161.412 1533.41 166.426C1542.78 171.222 1550.3 177.98 1555.97 186.7C1561.64 195.202 1564.8 205.121 1565.45 216.457V263.218C1564.8 274.336 1561.64 284.255 1555.97 292.975C1550.52 301.695 1543.11 308.562 1533.73 313.576C1524.58 318.372 1514 320.77 1502.01 320.77ZM1506.92 292.975C1521.52 292.975 1533.3 288.07 1542.23 278.26C1551.17 268.232 1555.64 255.479 1555.64 240.001C1555.64 229.319 1553.57 220.054 1549.43 212.206C1545.5 204.14 1539.84 197.927 1532.42 193.567C1525.01 188.989 1516.4 186.7 1506.59 186.7C1496.78 186.7 1488.06 188.989 1480.43 193.567C1473.02 198.145 1467.13 204.467 1462.77 212.533C1458.63 220.381 1456.56 229.428 1456.56 239.674C1456.56 250.138 1458.63 259.403 1462.77 267.469C1467.13 275.317 1473.13 281.53 1480.76 286.108C1488.39 290.686 1497.11 292.975 1506.92 292.975ZM1553.68 317.5V275.644L1559.24 237.712L1553.68 200.107V162.175H1583.44V317.5H1553.68ZM1692.01 320.77C1677.62 320.77 1664.76 317.282 1653.43 310.306C1642.09 303.112 1633.04 293.411 1626.28 281.203C1619.74 268.995 1616.47 255.261 1616.47 240.001C1616.47 224.741 1619.74 211.007 1626.28 198.799C1633.04 186.591 1642.09 176.89 1653.43 169.696C1664.76 162.502 1677.62 158.905 1692.01 158.905C1703.57 158.905 1714.03 161.412 1723.4 166.426C1732.78 171.222 1740.3 177.98 1745.97 186.7C1751.85 195.202 1755.12 205.121 1755.78 216.457V263.218C1755.12 274.336 1751.96 284.255 1746.29 292.975C1740.63 301.695 1733.1 308.562 1723.73 313.576C1714.36 318.372 1703.78 320.77 1692.01 320.77ZM1696.92 292.975C1706.73 292.975 1715.23 290.686 1722.42 286.108C1729.83 281.53 1735.61 275.317 1739.75 267.469C1743.9 259.403 1745.97 250.247 1745.97 240.001C1745.97 229.319 1743.79 220.054 1739.43 212.206C1735.28 204.358 1729.51 198.145 1722.1 193.567C1714.9 188.989 1706.4 186.7 1696.59 186.7C1686.78 186.7 1678.17 188.989 1670.76 193.567C1663.34 198.145 1657.46 204.467 1653.1 212.533C1648.96 220.381 1646.89 229.428 1646.89 239.674C1646.89 250.138 1648.96 259.403 1653.1 267.469C1657.46 275.317 1663.34 281.53 1670.76 286.108C1678.39 290.686 1687.11 292.975 1696.92 292.975ZM1773.76 317.5H1744V275.644L1749.56 237.712L1744 200.107V84.022H1773.76V317.5ZM1910.13 317.5V289.378H1973.24C1990.03 289.378 2004.74 285.781 2017.39 278.587C2030.03 271.175 2039.84 261.038 2046.82 248.176C2054.01 235.314 2057.61 220.49 2057.61 203.704C2057.61 187.136 2054.01 172.421 2046.82 159.559C2039.62 146.697 2029.71 136.669 2017.06 129.475C2004.42 122.281 1989.81 118.684 1973.24 118.684H1910.46V90.562H1973.9C1990.47 90.562 2005.73 93.396 2019.68 99.064C2033.85 104.732 2046.06 112.689 2056.3 122.935C2066.77 133.181 2074.83 145.171 2080.5 158.905C2086.39 172.639 2089.33 187.681 2089.33 204.031C2089.33 220.163 2086.39 235.205 2080.5 249.157C2074.83 262.891 2066.87 274.881 2056.63 285.127C2046.38 295.373 2034.17 303.33 2020 308.998C2006.05 314.666 1990.9 317.5 1974.55 317.5H1910.13ZM1889.86 317.5V90.562H1920.6V317.5H1889.86ZM2197.64 320.77C2182.38 320.77 2168.65 317.173 2156.44 309.979C2144.23 302.785 2134.53 293.084 2127.34 280.876C2120.14 268.45 2116.55 254.607 2116.55 239.347C2116.55 224.305 2120.14 210.789 2127.34 198.799C2134.53 186.591 2144.23 176.89 2156.44 169.696C2168.65 162.502 2182.38 158.905 2197.64 158.905C2212.68 158.905 2226.31 162.502 2238.52 169.696C2250.94 176.672 2260.75 186.264 2267.95 198.472C2275.14 210.68 2278.74 224.305 2278.74 239.347C2278.74 254.607 2275.14 268.45 2267.95 280.876C2260.75 293.084 2250.94 302.785 2238.52 309.979C2226.31 317.173 2212.68 320.77 2197.64 320.77ZM2197.64 292.321C2207.45 292.321 2216.17 290.032 2223.8 285.454C2231.43 280.876 2237.43 274.663 2241.79 266.815C2246.15 258.749 2248.33 249.593 2248.33 239.347C2248.33 229.319 2246.04 220.381 2241.46 212.533C2237.1 204.685 2231.11 198.581 2223.48 194.221C2216.06 189.643 2207.45 187.354 2197.64 187.354C2187.83 187.354 2179.11 189.643 2171.48 194.221C2163.85 198.581 2157.86 204.685 2153.5 212.533C2149.14 220.381 2146.96 229.319 2146.96 239.347C2146.96 249.593 2149.14 258.749 2153.5 266.815C2157.86 274.663 2163.85 280.876 2171.48 285.454C2179.11 290.032 2187.83 292.321 2197.64 292.321ZM2382.86 320.77C2367.6 320.77 2353.75 317.173 2341.33 309.979C2329.12 302.785 2319.42 293.084 2312.23 280.876C2305.25 268.45 2301.76 254.716 2301.76 239.674C2301.76 224.414 2305.25 210.68 2312.23 198.472C2319.42 186.264 2329.12 176.672 2341.33 169.696C2353.75 162.502 2367.6 158.905 2382.86 158.905C2394.85 158.905 2405.97 161.194 2416.21 165.772C2426.46 170.132 2435.29 176.563 2442.7 185.065L2423.08 204.685C2418.28 199.017 2412.4 194.766 2405.42 191.932C2398.66 188.88 2391.14 187.354 2382.86 187.354C2373.05 187.354 2364.33 189.643 2356.7 194.221C2349.07 198.581 2343.07 204.685 2338.71 212.533C2334.35 220.381 2332.17 229.428 2332.17 239.674C2332.17 249.92 2334.35 258.967 2338.71 266.815C2343.07 274.663 2349.07 280.876 2356.7 285.454C2364.33 290.032 2373.05 292.321 2382.86 292.321C2391.14 292.321 2398.66 290.904 2405.42 288.07C2412.4 285.018 2418.39 280.658 2423.41 274.99L2442.7 294.61C2435.5 302.894 2426.68 309.325 2416.21 313.903C2405.97 318.481 2394.85 320.77 2382.86 320.77ZM2534.34 320.77C2521.7 320.77 2510.25 317.936 2500.01 312.268C2489.98 306.382 2482.13 298.316 2476.46 288.07C2470.8 277.824 2467.96 265.943 2467.96 252.427V162.175H2497.39V251.119C2497.39 259.621 2498.81 267.033 2501.64 273.355C2504.69 279.459 2509.05 284.146 2514.72 287.416C2520.39 290.686 2527.04 292.321 2534.67 292.321C2546.22 292.321 2555.27 288.724 2561.81 281.53C2568.35 274.118 2571.62 263.981 2571.62 251.119V162.175H2601.05V252.427C2601.05 265.943 2598.22 277.824 2592.55 288.07C2586.88 298.316 2579.03 306.382 2569 312.268C2559.19 317.936 2547.64 320.77 2534.34 320.77ZM2640.5 317.5V162.175H2669.93V317.5H2640.5ZM2745.46 317.5V223.651C2745.46 212.097 2741.87 203.05 2734.67 196.51C2727.7 189.752 2718.87 186.373 2708.18 186.373C2700.99 186.373 2694.56 187.899 2688.89 190.951C2683.22 194.003 2678.65 198.254 2675.16 203.704C2671.67 209.154 2669.93 215.694 2669.93 223.324L2657.83 217.438C2657.83 205.666 2660.33 195.42 2665.35 186.7C2670.58 177.98 2677.66 171.222 2686.6 166.426C2695.54 161.412 2705.57 158.905 2716.69 158.905C2727.59 158.905 2737.4 161.303 2746.12 166.099C2755.05 170.895 2762.03 177.653 2767.04 186.373C2772.28 195.093 2774.89 205.448 2774.89 217.438V317.5H2745.46ZM2850.43 317.5V223.651C2850.43 212.097 2846.83 203.05 2839.64 196.51C2832.66 189.752 2823.94 186.373 2813.48 186.373C2806.28 186.373 2799.74 187.899 2793.86 190.951C2788.19 194.003 2783.61 198.254 2780.12 203.704C2776.64 209.154 2774.89 215.694 2774.89 223.324L2758.22 217.438C2758.87 205.448 2762.03 195.202 2767.7 186.7C2773.58 177.98 2781.11 171.222 2790.26 166.426C2799.42 161.412 2809.45 158.905 2820.35 158.905C2831.68 158.905 2841.82 161.303 2850.76 166.099C2859.69 170.895 2866.78 177.653 2872.01 186.373C2877.46 195.093 2880.19 205.557 2880.19 217.765V317.5H2850.43ZM2992.17 320.77C2976.7 320.77 2962.74 317.282 2950.32 310.306C2937.89 303.112 2928.08 293.411 2920.89 281.203C2913.69 268.995 2910.1 255.152 2910.1 239.674C2910.1 224.414 2913.58 210.68 2920.56 198.472C2927.75 186.264 2937.35 176.672 2949.34 169.696C2961.54 162.502 2975.17 158.905 2990.21 158.905C3004.6 158.905 3017.24 162.175 3028.14 168.715C3039.26 175.255 3047.87 184.302 3053.98 195.856C3060.3 207.41 3063.46 220.49 3063.46 235.096C3063.46 237.276 3063.35 239.674 3063.13 242.29C3062.91 244.688 3062.48 247.522 3061.82 250.792H2930.7V226.267H3046.13L3035.34 235.75C3035.34 225.286 3033.48 216.457 3029.78 209.263C3026.07 201.851 3020.84 196.183 3014.08 192.259C3007.32 188.117 2999.15 186.046 2989.56 186.046C2979.53 186.046 2970.7 188.226 2963.07 192.586C2955.44 196.946 2949.55 203.05 2945.41 210.898C2941.27 218.746 2939.2 228.011 2939.2 238.693C2939.2 249.593 2941.38 259.185 2945.74 267.469C2950.1 275.535 2956.31 281.857 2964.38 286.435C2972.44 290.795 2981.71 292.975 2992.17 292.975C3000.89 292.975 3008.85 291.449 3016.04 288.397C3023.46 285.345 3029.78 280.767 3035.01 274.663L3053.98 293.956C3046.56 302.676 3037.41 309.325 3026.51 313.903C3015.83 318.481 3004.38 320.77 2992.17 320.77ZM3205.42 317.5V226.921C3205.42 215.149 3201.71 205.448 3194.3 197.818C3186.89 190.188 3177.3 186.373 3165.53 186.373C3157.68 186.373 3150.7 188.117 3144.6 191.605C3138.49 195.093 3133.7 199.889 3130.21 205.993C3126.72 212.097 3124.98 219.073 3124.98 226.921L3112.88 220.054C3112.88 208.282 3115.5 197.818 3120.73 188.662C3125.96 179.506 3133.26 172.312 3142.64 167.08C3152.01 161.63 3162.58 158.905 3174.36 158.905C3186.13 158.905 3196.48 161.848 3205.42 167.734C3214.58 173.62 3221.77 181.359 3227 190.951C3232.23 200.325 3234.85 210.353 3234.85 221.035V317.5H3205.42ZM3095.55 317.5V162.175H3124.98V317.5H3095.55ZM3296.65 317.5V97.102H3326.08V317.5H3296.65ZM3258.39 188.989V162.175H3364.34V188.989H3258.39ZM3454.43 320.77C3440.26 320.77 3427.4 317.282 3415.85 310.306C3404.29 303.112 3395.14 293.411 3388.38 281.203C3381.84 268.995 3378.57 255.261 3378.57 240.001C3378.57 224.741 3381.84 211.007 3388.38 198.799C3395.14 186.591 3404.18 176.89 3415.52 169.696C3427.07 162.502 3440.05 158.905 3454.43 158.905C3466.21 158.905 3476.67 161.412 3485.83 166.426C3495.2 171.222 3502.72 177.98 3508.39 186.7C3514.06 195.202 3517.22 205.121 3517.87 216.457V263.218C3517.22 274.336 3514.06 284.255 3508.39 292.975C3502.94 301.695 3495.53 308.562 3486.15 313.576C3477 318.372 3466.42 320.77 3454.43 320.77ZM3459.34 292.975C3473.94 292.975 3485.72 288.07 3494.65 278.26C3503.59 268.232 3508.06 255.479 3508.06 240.001C3508.06 229.319 3505.99 220.054 3501.85 212.206C3497.92 204.14 3492.26 197.927 3484.84 193.567C3477.43 188.989 3468.82 186.7 3459.01 186.7C3449.2 186.7 3440.48 188.989 3432.85 193.567C3425.44 198.145 3419.55 204.467 3415.19 212.533C3411.05 220.381 3408.98 229.428 3408.98 239.674C3408.98 250.138 3411.05 259.403 3415.19 267.469C3419.55 275.317 3425.55 281.53 3433.18 286.108C3440.81 290.686 3449.53 292.975 3459.34 292.975ZM3506.1 317.5V275.644L3511.66 237.712L3506.1 200.107V162.175H3535.86V317.5H3506.1ZM3601.94 317.5V97.102H3631.37V317.5H3601.94ZM3563.68 188.989V162.175H3669.63V188.989H3563.68ZM3698.78 317.5V162.175H3728.21V317.5H3698.78ZM3713.5 131.11C3708.05 131.11 3703.58 129.366 3700.09 125.878C3696.6 122.172 3694.86 117.594 3694.86 112.144C3694.86 106.912 3696.6 102.552 3700.09 99.064C3703.58 95.358 3708.05 93.505 3713.5 93.505C3718.95 93.505 3723.42 95.358 3726.9 99.064C3730.39 102.552 3732.14 106.912 3732.14 112.144C3732.14 117.594 3730.39 122.172 3726.9 125.878C3723.42 129.366 3718.95 131.11 3713.5 131.11ZM3842.54 320.77C3827.28 320.77 3813.55 317.173 3801.34 309.979C3789.13 302.785 3779.43 293.084 3772.24 280.876C3765.04 268.45 3761.45 254.607 3761.45 239.347C3761.45 224.305 3765.04 210.789 3772.24 198.799C3779.43 186.591 3789.13 176.89 3801.34 169.696C3813.55 162.502 3827.28 158.905 3842.54 158.905C3857.58 158.905 3871.21 162.502 3883.42 169.696C3895.84 176.672 3905.65 186.264 3912.85 198.472C3920.04 210.68 3923.64 224.305 3923.64 239.347C3923.64 254.607 3920.04 268.45 3912.85 280.876C3905.65 293.084 3895.84 302.785 3883.42 309.979C3871.21 317.173 3857.58 320.77 3842.54 320.77ZM3842.54 292.321C3852.35 292.321 3861.07 290.032 3868.7 285.454C3876.33 280.876 3882.33 274.663 3886.69 266.815C3891.05 258.749 3893.23 249.593 3893.23 239.347C3893.23 229.319 3890.94 220.381 3886.36 212.533C3882 204.685 3876 198.581 3868.37 194.221C3860.96 189.643 3852.35 187.354 3842.54 187.354C3832.73 187.354 3824.01 189.643 3816.38 194.221C3808.75 198.581 3802.76 204.685 3798.4 212.533C3794.04 220.381 3791.86 229.319 3791.86 239.347C3791.86 249.593 3794.04 258.749 3798.4 266.815C3802.76 274.663 3808.75 280.876 3816.38 285.454C3824.01 290.032 3832.73 292.321 3842.54 292.321ZM4066.67 317.5V226.921C4066.67 215.149 4062.96 205.448 4055.55 197.818C4048.14 190.188 4038.55 186.373 4026.78 186.373C4018.93 186.373 4011.95 188.117 4005.85 191.605C3999.74 195.093 3994.95 199.889 3991.46 205.993C3987.97 212.097 3986.23 219.073 3986.23 226.921L3974.13 220.054C3974.13 208.282 3976.74 197.818 3981.98 188.662C3987.21 179.506 3994.51 172.312 4003.89 167.08C4013.26 161.63 4023.83 158.905 4035.6 158.905C4047.38 158.905 4057.73 161.848 4066.67 167.734C4075.83 173.62 4083.02 181.359 4088.25 190.951C4093.48 200.325 4096.1 210.353 4096.1 221.035V317.5H4066.67ZM3956.8 317.5V162.175H3986.23V317.5H3956.8Z" fill="black"/>
</svg>
