<svg width="1796" height="408" viewBox="0 0 1796 408" fill="none" xmlns="http://www.w3.org/2000/svg">
<path d="M94.4551 304.586V105.007" stroke="white" stroke-width="9"/>
<path d="M94.4551 105.007C184.217 105.007 184.217 304.586 273.978 304.586" stroke="white" stroke-width="9"/>
<path d="M273.979 304.586V105.007" stroke="white" stroke-width="9" stroke-dasharray="12 7"/>
<path d="M95.0343 318.75C102.39 318.75 108.354 312.12 108.354 303.942C108.354 295.764 102.39 289.135 95.0343 289.135C87.6782 289.135 81.7148 295.764 81.7148 303.942C81.7148 312.12 87.6782 318.75 95.0343 318.75Z" fill="white" stroke="white" stroke-width="6"/>
<path d="M95.0343 120.459C102.39 120.459 108.354 113.829 108.354 105.651C108.354 97.4733 102.39 90.8438 95.0343 90.8438C87.6782 90.8438 81.7148 97.4733 81.7148 105.651C81.7148 113.829 87.6782 120.459 95.0343 120.459Z" fill="white" stroke="white" stroke-width="6"/>
<path d="M273.4 318.75C280.756 318.75 286.719 312.12 286.719 303.942C286.719 295.764 280.756 289.135 273.4 289.135C266.043 289.135 260.08 295.764 260.08 303.942C260.08 312.12 266.043 318.75 273.4 318.75Z" fill="white" stroke="white" stroke-width="6"/>
<path d="M273.4 120.459C280.756 120.459 286.719 113.829 286.719 105.651C286.719 97.4733 280.756 90.8438 273.4 90.8438C266.043 90.8438 260.08 97.4733 260.08 105.651C260.08 113.829 266.043 120.459 273.4 120.459Z" fill="white" stroke="white" stroke-width="6"/>
<path d="M22.9375 51V25.5H45.875" stroke="white" stroke-width="6"/>
<path d="M321.125 25.5H344.062V51" stroke="white" stroke-width="6"/>
<path d="M22.9375 357V382.5H45.875" stroke="white" stroke-width="6"/>
<path d="M344.062 357V382.5H321.125" stroke="white" stroke-width="6"/>
<path d="M468.814 317.5V90.562H490.396L499.552 126.205V317.5H468.814ZM625.774 317.5L486.472 131.437L490.396 90.562L630.025 276.298L625.774 317.5ZM625.774 317.5L616.618 283.819V90.562H647.356V317.5H625.774ZM766.698 320.77C751.438 320.77 737.704 317.173 725.496 309.979C713.288 302.785 703.587 293.084 696.393 280.876C689.199 268.45 685.602 254.607 685.602 239.347C685.602 224.305 689.199 210.789 696.393 198.799C703.587 186.591 713.288 176.89 725.496 169.696C737.704 162.502 751.438 158.905 766.698 158.905C781.74 158.905 795.365 162.502 807.573 169.696C819.999 176.672 829.809 186.264 837.003 198.472C844.197 210.68 847.794 224.305 847.794 239.347C847.794 254.607 844.197 268.45 837.003 280.876C829.809 293.084 819.999 302.785 807.573 309.979C795.365 317.173 781.74 320.77 766.698 320.77ZM766.698 292.321C776.508 292.321 785.228 290.032 792.858 285.454C800.488 280.876 806.483 274.663 810.843 266.815C815.203 258.749 817.383 249.593 817.383 239.347C817.383 229.319 815.094 220.381 810.516 212.533C806.156 204.685 800.161 198.581 792.531 194.221C785.119 189.643 776.508 187.354 766.698 187.354C756.888 187.354 748.168 189.643 740.538 194.221C732.908 198.581 726.913 204.685 722.553 212.533C718.193 220.381 716.013 229.319 716.013 239.347C716.013 249.593 718.193 258.749 722.553 266.815C726.913 274.663 732.908 280.876 740.538 285.454C748.168 290.032 756.888 292.321 766.698 292.321ZM946.681 320.77C932.293 320.77 919.431 317.282 908.095 310.306C896.759 303.112 887.712 293.411 880.954 281.203C874.414 268.995 871.144 255.261 871.144 240.001C871.144 224.741 874.414 211.007 880.954 198.799C887.712 186.591 896.759 176.89 908.095 169.696C919.431 162.502 932.293 158.905 946.681 158.905C958.235 158.905 968.699 161.412 978.073 166.426C987.447 171.222 994.968 177.98 1000.64 186.7C1006.52 195.202 1009.79 205.121 1010.45 216.457V263.218C1009.79 274.336 1006.63 284.255 1000.96 292.975C995.295 301.695 987.774 308.562 978.4 313.576C969.026 318.372 958.453 320.77 946.681 320.77ZM951.586 292.975C961.396 292.975 969.898 290.686 977.092 286.108C984.504 281.53 990.281 275.317 994.423 267.469C998.565 259.403 1000.64 250.247 1000.64 240.001C1000.64 229.319 998.456 220.054 994.096 212.206C989.954 204.358 984.177 198.145 976.765 193.567C969.571 188.989 961.069 186.7 951.259 186.7C941.449 186.7 932.838 188.989 925.426 193.567C918.014 198.145 912.128 204.467 907.768 212.533C903.626 220.381 901.555 229.428 901.555 239.674C901.555 250.138 903.626 259.403 907.768 267.469C912.128 275.317 918.014 281.53 925.426 286.108C933.056 290.686 941.776 292.975 951.586 292.975ZM1028.43 317.5H998.674V275.644L1004.23 237.712L998.674 200.107V84.022H1028.43V317.5ZM1143.22 320.77C1127.74 320.77 1113.79 317.282 1101.36 310.306C1088.94 303.112 1079.13 293.411 1071.93 281.203C1064.74 268.995 1061.14 255.152 1061.14 239.674C1061.14 224.414 1064.63 210.68 1071.61 198.472C1078.8 186.264 1088.39 176.672 1100.38 169.696C1112.59 162.502 1126.21 158.905 1141.26 158.905C1155.64 158.905 1168.29 162.175 1179.19 168.715C1190.31 175.255 1198.92 184.302 1205.02 195.856C1211.34 207.41 1214.5 220.49 1214.5 235.096C1214.5 237.276 1214.4 239.674 1214.18 242.29C1213.96 244.688 1213.52 247.522 1212.87 250.792H1081.74V226.267H1197.17L1186.38 235.75C1186.38 225.286 1184.53 216.457 1180.82 209.263C1177.12 201.851 1171.89 196.183 1165.13 192.259C1158.37 188.117 1150.19 186.046 1140.6 186.046C1130.57 186.046 1121.75 188.226 1114.12 192.586C1106.49 196.946 1100.6 203.05 1096.46 210.898C1092.32 218.746 1090.24 228.011 1090.24 238.693C1090.24 249.593 1092.42 259.185 1096.78 267.469C1101.14 275.535 1107.36 281.857 1115.42 286.435C1123.49 290.795 1132.75 292.975 1143.22 292.975C1151.94 292.975 1159.9 291.449 1167.09 288.397C1174.5 285.345 1180.82 280.767 1186.06 274.663L1205.02 293.956C1197.61 302.676 1188.45 309.325 1177.55 313.903C1166.87 318.481 1155.43 320.77 1143.22 320.77ZM1272.43 229.21V202.396H1334.23C1342.73 202.396 1350.25 200.652 1356.79 197.164C1363.55 193.676 1368.78 188.771 1372.49 182.449C1376.41 176.127 1378.37 168.606 1378.37 159.886C1378.37 151.166 1376.41 143.645 1372.49 137.323C1368.78 131.001 1363.55 126.096 1356.79 122.608C1350.25 119.12 1342.73 117.376 1334.23 117.376H1272.43V90.562H1336.19C1350.14 90.562 1362.57 93.396 1373.47 99.064C1384.59 104.732 1393.31 112.798 1399.63 123.262C1406.17 133.508 1409.44 145.716 1409.44 159.886C1409.44 173.838 1406.17 186.046 1399.63 196.51C1393.31 206.756 1384.59 214.822 1373.47 220.708C1362.57 226.376 1350.14 229.21 1336.19 229.21H1272.43ZM1251.83 317.5V90.562H1282.56V317.5H1251.83ZM1502.01 320.77C1487.84 320.77 1474.98 317.282 1463.43 310.306C1451.87 303.112 1442.72 293.411 1435.96 281.203C1429.42 268.995 1426.15 255.261 1426.15 240.001C1426.15 224.741 1429.42 211.007 1435.96 198.799C1442.72 186.591 1451.76 176.89 1463.1 169.696C1474.65 162.502 1487.63 158.905 1502.01 158.905C1513.79 158.905 1524.25 161.412 1533.41 166.426C1542.78 171.222 1550.3 177.98 1555.97 186.7C1561.64 195.202 1564.8 205.121 1565.45 216.457V263.218C1564.8 274.336 1561.64 284.255 1555.97 292.975C1550.52 301.695 1543.11 308.562 1533.73 313.576C1524.58 318.372 1514 320.77 1502.01 320.77ZM1506.92 292.975C1521.52 292.975 1533.3 288.07 1542.23 278.26C1551.17 268.232 1555.64 255.479 1555.64 240.001C1555.64 229.319 1553.57 220.054 1549.43 212.206C1545.5 204.14 1539.84 197.927 1532.42 193.567C1525.01 188.989 1516.4 186.7 1506.59 186.7C1496.78 186.7 1488.06 188.989 1480.43 193.567C1473.02 198.145 1467.13 204.467 1462.77 212.533C1458.63 220.381 1456.56 229.428 1456.56 239.674C1456.56 250.138 1458.63 259.403 1462.77 267.469C1467.13 275.317 1473.13 281.53 1480.76 286.108C1488.39 290.686 1497.11 292.975 1506.92 292.975ZM1553.68 317.5V275.644L1559.24 237.712L1553.68 200.107V162.175H1583.44V317.5H1553.68ZM1692.01 320.77C1677.62 320.77 1664.76 317.282 1653.43 310.306C1642.09 303.112 1633.04 293.411 1626.28 281.203C1619.74 268.995 1616.47 255.261 1616.47 240.001C1616.47 224.741 1619.74 211.007 1626.28 198.799C1633.04 186.591 1642.09 176.89 1653.43 169.696C1664.76 162.502 1677.62 158.905 1692.01 158.905C1703.57 158.905 1714.03 161.412 1723.4 166.426C1732.78 171.222 1740.3 177.98 1745.97 186.7C1751.85 195.202 1755.12 205.121 1755.78 216.457V263.218C1755.12 274.336 1751.96 284.255 1746.29 292.975C1740.63 301.695 1733.1 308.562 1723.73 313.576C1714.36 318.372 1703.78 320.77 1692.01 320.77ZM1696.92 292.975C1706.73 292.975 1715.23 290.686 1722.42 286.108C1729.83 281.53 1735.61 275.317 1739.75 267.469C1743.9 259.403 1745.97 250.247 1745.97 240.001C1745.97 229.319 1743.79 220.054 1739.43 212.206C1735.28 204.358 1729.51 198.145 1722.1 193.567C1714.9 188.989 1706.4 186.7 1696.59 186.7C1686.78 186.7 1678.17 188.989 1670.76 193.567C1663.34 198.145 1657.46 204.467 1653.1 212.533C1648.96 220.381 1646.89 229.428 1646.89 239.674C1646.89 250.138 1648.96 259.403 1653.1 267.469C1657.46 275.317 1663.34 281.53 1670.76 286.108C1678.39 290.686 1687.11 292.975 1696.92 292.975ZM1773.76 317.5H1744V275.644L1749.56 237.712L1744 200.107V84.022H1773.76V317.5Z" fill="white"/>
</svg>
