<svg width="760" height="196" viewBox="0 0 760 196" fill="none" xmlns="http://www.w3.org/2000/svg">
  <g transform="translate(0,10)">
    <path d="M50.626 145.374V50.626" stroke="#111111" stroke-width="7"/>
    <path d="M50.626 50.626C98.0473 50.626 98.0473 145.374 145.374 145.374" stroke="#111111" stroke-width="7"/>
    <path d="M145.374 145.374V50.626" stroke="#111111" stroke-width="7" stroke-dasharray="10 6"/>
    <path d="M50.9321 152.093C54.8209 152.093 57.9733 148.941 57.9733 145.052C57.9733 141.163 54.8209 138.011 50.9321 138.011C47.0433 138.011 43.8909 141.163 43.8909 145.052C43.8909 148.941 47.0433 152.093 50.9321 152.093Z" fill="#111111" stroke="#111111" stroke-width="4.5"/>
    <path d="M50.9321 57.9733C54.8209 57.9733 57.9733 54.8209 57.9733 50.9321C57.9733 47.0433 54.8209 43.8909 50.9321 43.8909C47.0433 43.8909 43.8909 47.0433 43.8909 50.9321C43.8909 54.8209 47.0433 57.9733 50.9321 57.9733Z" fill="#111111" stroke="#111111" stroke-width="4.5"/>
    <path d="M145.052 152.093C148.941 152.093 152.093 148.941 152.093 145.052C152.093 141.163 148.941 138.011 145.052 138.011C141.163 138.011 138.011 141.163 138.011 145.052C138.011 148.941 141.163 152.093 145.052 152.093Z" fill="#111111" stroke="#111111" stroke-width="4.5"/>
    <path d="M145.052 57.9733C148.941 57.9733 152.093 54.8209 152.093 50.9321C152.093 47.0433 148.941 43.8909 145.052 43.8909C141.163 43.8909 138.011 47.0433 138.011 50.9321C138.011 54.8209 141.163 57.9733 145.052 57.9733Z" fill="#111111" stroke="#111111" stroke-width="4.5"/>
    <path d="M12 24V12H24" stroke="#111111" stroke-width="4.5"/>
    <path d="M172 12H184V24" stroke="#111111" stroke-width="4.5"/>
    <path d="M12 172V184H24" stroke="#111111" stroke-width="4.5"/>
    <path d="M184 172V184H172" stroke="#111111" stroke-width="4.5"/>
  </g>
  <text x="220" y="126" fill="#111111" font-family="Outfit, Inter, ui-sans-serif, system-ui, sans-serif" font-size="90" font-weight="500" letter-spacing="0">NodePad</text>
</svg>
