<svg width="256" height="256" viewBox="0 0 256 256" fill="none" xmlns="http://www.w3.org/2000/svg">
<path d="M65.887 191.113V65.887" stroke="#111111" stroke-width="9"/>
<path d="M65.887 65.887C128.5 65.887 128.5 191.113 191.113 191.113" stroke="#111111" stroke-width="9"/>
<path d="M191.113 191.113V65.887" stroke="#111111" stroke-width="9" stroke-dasharray="12 7"/>
<path d="M66.291 200C71.4222 200 75.5819 195.84 75.5819 190.709C75.5819 185.578 71.4222 181.418 66.291 181.418C61.1597 181.418 57 185.578 57 190.709C57 195.84 61.1597 200 66.291 200Z" fill="#111111" stroke="#111111" stroke-width="6"/>
<path d="M66.291 75.5819C71.4222 75.5819 75.5819 71.4222 75.5819 66.291C75.5819 61.1597 71.4222 57 66.291 57C61.1597 57 57 61.1597 57 66.291C57 71.4222 61.1597 75.5819 66.291 75.5819Z" fill="#111111" stroke="#111111" stroke-width="6"/>
<path d="M190.709 200C195.84 200 200 195.84 200 190.709C200 185.578 195.84 181.418 190.709 181.418C185.578 181.418 181.418 185.578 181.418 190.709C181.418 195.84 185.578 200 190.709 200Z" fill="#111111" stroke="#111111" stroke-width="6"/>
<path d="M190.709 75.5819C195.84 75.5819 200 71.4222 200 66.291C200 61.1597 195.84 57 190.709 57C185.578 57 181.418 61.1597 181.418 66.291C181.418 71.4222 185.578 75.5819 190.709 75.5819Z" fill="#111111" stroke="#111111" stroke-width="6"/>
<path d="M16 32V16H32" stroke="#111111" stroke-width="6"/>
<path d="M224 16H240V32" stroke="#111111" stroke-width="6"/>
<path d="M16 224V240H32" stroke="#111111" stroke-width="6"/>
<path d="M240 224V240H224" stroke="#111111" stroke-width="6"/>
</svg>
